<!DOCTYPE svg PUBLIC "-//W3C//DTD SVG 1.1//EN" "http://www.w3.org/Graphics/SVG/1.1/DTD/svg11.dtd">
<!-- Uploaded to: SVG Repo, www.svgrepo.com, Transformed by: SVG Repo Mixer Tools -->
<svg width="800px" height="800px" viewBox="0 0 400 400" fill="none" xmlns="http://www.w3.org/2000/svg">
<g id="SVGRepo_bgCarrier" stroke-width="0"/>
<g id="SVGRepo_tracerCarrier" stroke-linecap="round" stroke-linejoin="round"/>
<g id="SVGRepo_iconCarrier"> <path d="M138.546 199.585C129.21 185.366 124.071 168.661 115.695 153.711C108.408 140.713 81.6988 55.0985 118.14 60.3242C152.857 65.3048 167.3 124.197 173.643 151.253C177.301 166.857 177.793 188.937 178.538 188.937C179.302 188.937 187.99 158.732 189.151 156.169C208.696 113.002 233.224 84 264.239 55.0001C295.254 26.0002 295.106 42.0806 297.699 43.1209C303.278 45.3622 311 89.9999 280.5 139C250 188 239.59 199.585 233.224 210.233C231.519 213.085 266 232 266 270C266 308.999 232.304 354 189.152 354C146 354 88.9998 310 115.695 223" stroke="#ffffff" stroke-opacity="0.9" stroke-width="16" stroke-linecap="round" stroke-linejoin="round"/> <path fill-rule="evenodd" clip-rule="evenodd" d="M189.445 293.566C167 274 200.454 277.316 201.396 280.512C202.237 283.361 191.731 291.141 189.445 293.566Z" stroke="#ffffff" stroke-opacity="0.9" stroke-width="16" stroke-linecap="round" stroke-linejoin="round"/> <path d="M173 316.91C186.916 322.974 194.976 322.245 205.94 311" stroke="#ffffff" stroke-opacity="0.9" stroke-width="16" stroke-linecap="round" stroke-linejoin="round"/> <path d="M189.65 299.518C189.794 303.558 189.129 307.336 188.67 311.144" stroke="#ffffff" stroke-opacity="0.9" stroke-width="16" stroke-linecap="round" stroke-linejoin="round"/> <path d="M177.504 252.514C177.504 249.929 177.504 247.348 177.504 244.763" stroke="#ffffff" stroke-opacity="0.9" stroke-width="16" stroke-linecap="round" stroke-linejoin="round"/> <path d="M202.693 250.826C202.693 248.163 202.693 245.495 202.693 242.826" stroke="#ffffff" stroke-opacity="0.9" stroke-width="16" stroke-linecap="round" stroke-linejoin="round"/> </g>
</svg>